<?xml version="1.0" encoding="UTF-8"?>
<svg id="Layer_1" xmlns="http://www.w3.org/2000/svg" version="1.1" viewBox="0 0 20.1 19.3">
  <!-- Generator: Adobe Illustrator 30.7.0, SVG Export Plug-In . SVG Version: 2.1.4 Build 114)  -->
  <defs>
    <style>
      .st0 {
        fill: #ffea92;
      }
    </style>
  </defs>
  <path class="st0" d="M11.6.9l2,3.4c.3.4.7.8,1.2.9l3.9.8c1.4.3,1.9,2,1,3l-2.6,2.9c-.3.4-.5.9-.5,1.4l.4,3.9c.1,1.4-1.3,2.4-2.6,1.9l-3.6-1.6c-.5-.2-1-.2-1.5,0l-3.6,1.6c-1.3.6-2.7-.5-2.6-1.9l.4-3.9c0-.5-.1-1-.5-1.4L.5,9c-.9-1-.4-2.7,1-3l3.9-.8c.5-.1.9-.4,1.2-.9l2-3.4c.7-1.2,2.5-1.2,3.2,0Z"/>
</svg>